<?xml version="1.0" encoding="UTF-8"?>
<svg id="Layer_1" data-name="Layer 1" xmlns="http://www.w3.org/2000/svg" width="200" height="200" viewBox="0 0 200 200">
  <circle cx="100" cy="67.355" r="2.058" style="fill: #72ccdb;"/>
  <circle cx="100" cy="86.346" r="8.405" style="fill: #72ccdb;"/>
  <circle cx="100" cy="99.827" r="2.058" style="fill: #72ccdb;"/>
  <circle cx="100" cy="76.974" r="5.043" style="fill: #72ccdb;"/>
  <circle cx="100" cy="55.979" r="6.279" style="fill: #72ccdb;"/>
  <path d="M100,55.732c-8.969,0-16.266-7.297-16.266-16.266s7.297-16.266,16.266-16.266,16.266,7.297,16.266,16.266-7.297,16.266-16.266,16.266ZM100,26.066c-7.388,0-13.399,6.011-13.399,13.399s6.011,13.399,13.399,13.399,13.399-6.011,13.399-13.399-6.011-13.399-13.399-13.399Z" style="fill: #72ccdb;"/>
  <circle cx="100" cy="99.827" r="2.058" style="fill: #72ccdb;"/>
  <circle cx="100" cy="132.645" r="2.058" style="fill: #72ccdb;"/>
  <circle cx="100" cy="113.654" r="8.405" style="fill: #72ccdb;"/>
  <circle cx="100" cy="123.026" r="5.043" style="fill: #72ccdb;"/>
  <circle cx="100" cy="144.02" r="6.279" style="fill: #72ccdb;"/>
  <path d="M100,176.8c-8.969,0-16.266-7.297-16.266-16.266s7.297-16.266,16.266-16.266,16.266,7.297,16.266,16.266-7.297,16.266-16.266,16.266ZM100,147.135c-7.388,0-13.399,6.011-13.399,13.399s6.011,13.399,13.399,13.399,13.399-6.011,13.399-13.399-6.011-13.399-13.399-13.399Z" style="fill: #72ccdb;"/>
  <circle cx="100" cy="99.827" r="2.058" style="fill: #72ccdb;"/>
  <circle cx="111.376" cy="99.827" r="6.279" style="fill: #72ccdb;"/>
  <path d="M127.889,116.092c-8.969,0-16.266-7.297-16.266-16.266s7.297-16.266,16.266-16.266,16.266,7.297,16.266,16.266-7.297,16.266-16.266,16.266ZM127.889,86.427c-7.388,0-13.399,6.011-13.399,13.399s6.011,13.399,13.399,13.399,13.399-6.011,13.399-13.399-6.011-13.399-13.399-13.399Z" style="fill: #72ccdb;"/>
  <circle cx="100" cy="99.827" r="2.058" style="fill: #72ccdb;"/>
  <circle cx="88.624" cy="99.827" r="6.279" style="fill: #72ccdb;"/>
  <path d="M72.111,116.092c-8.969,0-16.266-7.297-16.266-16.266s7.297-16.266,16.266-16.266,16.266,7.297,16.266,16.266-7.297,16.266-16.266,16.266ZM72.111,86.427c-7.388,0-13.399,6.011-13.399,13.399s6.011,13.399,13.399,13.399,13.399-6.011,13.399-13.399-6.011-13.399-13.399-13.399Z" style="fill: #72ccdb;"/>
</svg>