<?xml version="1.0" encoding="UTF-8"?>
<svg id="Layer_1" data-name="Layer 1" xmlns="http://www.w3.org/2000/svg" width="200" height="200" viewBox="0 0 200 200">
  <path d="M157.369,116.266c-8.969,0-16.266-7.297-16.266-16.266s7.297-16.266,16.266-16.266,16.266,7.297,16.266,16.266-7.297,16.266-16.266,16.266ZM157.369,86.601c-7.388,0-13.399,6.011-13.399,13.399s6.011,13.399,13.399,13.399,13.4-6.011,13.4-13.399-6.011-13.399-13.4-13.399Z" style="fill: #72ccdb;"/>
  <circle cx="157.369" cy="100" r="10.234" style="fill: #72ccdb;"/>
  <circle cx="140.787" cy="100" r="2.058" style="fill: #72ccdb;"/>
  <circle cx="126.035" cy="100" r="8.405" style="fill: #72ccdb;"/>
  <circle cx="116.662" cy="100" r="5.043" style="fill: #72ccdb;"/>
  <path d="M100,116.266c-8.969,0-16.266-7.297-16.266-16.266s7.297-16.266,16.266-16.266,16.266,7.297,16.266,16.266-7.297,16.266-16.266,16.266ZM100,86.601c-7.388,0-13.399,6.011-13.399,13.399s6.011,13.399,13.399,13.399,13.399-6.011,13.399-13.399-6.011-13.399-13.399-13.399Z" style="fill: #72ccdb;"/>
  <circle cx="100" cy="83.669" r="2.058" style="fill: #72ccdb;"/>
  <circle cx="100" cy="72.293" r="6.279" style="fill: #72ccdb;"/>
  <path d="M100,72.045c-8.969,0-16.266-7.297-16.266-16.266s7.297-16.266,16.266-16.266,16.266,7.297,16.266,16.266-7.297,16.266-16.266,16.266ZM100,42.38c-7.388,0-13.399,6.011-13.399,13.399s6.011,13.399,13.399,13.399,13.399-6.011,13.399-13.399-6.011-13.399-13.399-13.399Z" style="fill: #72ccdb;"/>
  <path d="M97.942,116.331c0-1.136.921-2.058,2.058-2.058s2.058.921,2.058,2.058-.921,2.058-2.058,2.058-2.058-.921-2.058-2.058Z" style="fill: #72ccdb;"/>
  <circle cx="100" cy="127.707" r="6.279" style="fill: #72ccdb;"/>
  <path d="M100,160.486c-8.969,0-16.266-7.297-16.266-16.266s7.297-16.266,16.266-16.266,16.266,7.297,16.266,16.266-7.297,16.266-16.266,16.266ZM100,130.821c-7.388,0-13.399,6.011-13.399,13.399s6.011,13.399,13.399,13.399,13.399-6.011,13.399-13.399-6.011-13.399-13.399-13.399Z" style="fill: #72ccdb;"/>
  <path d="M42.631,116.266c-8.969,0-16.266-7.297-16.266-16.266s7.297-16.266,16.266-16.266,16.266,7.297,16.266,16.266-7.297,16.266-16.266,16.266ZM42.631,86.601c-7.388,0-13.399,6.011-13.399,13.399s6.011,13.399,13.399,13.399,13.399-6.011,13.399-13.399-6.011-13.399-13.399-13.399Z" style="fill: #72ccdb;"/>
  <circle cx="42.631" cy="100" r="10.234" style="fill: #72ccdb;"/>
  <circle cx="59.213" cy="100" r="2.058" style="fill: #72ccdb;"/>
  <circle cx="73.965" cy="100" r="8.405" style="fill: #72ccdb;"/>
  <circle cx="83.338" cy="100" r="5.043" style="fill: #72ccdb;"/>
</svg>