<?xml version="1.0" encoding="UTF-8"?>
<svg id="Layer_1" data-name="Layer 1" xmlns="http://www.w3.org/2000/svg" width="200" height="200" viewBox="0 0 200 200">
  <circle cx="119.67" cy="131.276" r="8.405" style="fill: #72ccdb;"/>
  <circle cx="110.137" cy="121.743" r="2.058" style="fill: #72ccdb;"/>
  <circle cx="126.297" cy="137.903" r="5.043" style="fill: #72ccdb;"/>
  <path d="M136.807,164.671c-4.165,0-8.331-1.585-11.501-4.756-3.072-3.072-4.764-7.157-4.764-11.502s1.692-8.429,4.764-11.501c3.072-3.072,7.157-4.764,11.501-4.764s8.429,1.692,11.502,4.764c6.342,6.342,6.342,16.661,0,23.003-3.171,3.171-7.336,4.756-11.502,4.756ZM136.807,135.013c-3.579,0-6.944,1.394-9.475,3.925-2.531,2.531-3.925,5.896-3.925,9.475s1.394,6.944,3.925,9.475c5.224,5.224,13.725,5.223,18.95,0,5.224-5.225,5.224-13.726,0-18.95-2.531-2.531-5.896-3.925-9.475-3.925Z" style="fill: #72ccdb;"/>
  <circle cx="80.338" cy="131.276" r="8.405" style="fill: #72ccdb;"/>
  <circle cx="89.87" cy="121.743" r="2.058" style="fill: #72ccdb;"/>
  <circle cx="73.711" cy="137.903" r="5.043" style="fill: #72ccdb;"/>
  <path d="M63.201,164.678c-4.345,0-8.429-1.692-11.501-4.764-3.072-3.072-4.764-7.157-4.764-11.502s1.692-8.429,4.764-11.501h0s0,0,0,0c3.072-3.072,7.156-4.764,11.501-4.764s8.429,1.692,11.501,4.764c3.072,3.072,4.764,7.156,4.764,11.501s-1.692,8.429-4.764,11.502c-3.072,3.072-7.156,4.764-11.501,4.764ZM63.201,135.013c-3.579,0-6.944,1.394-9.475,3.925h0c-2.531,2.531-3.925,5.896-3.925,9.475s1.394,6.944,3.925,9.475c2.531,2.531,5.896,3.924,9.475,3.924s6.944-1.394,9.475-3.924c2.531-2.531,3.925-5.896,3.925-9.475s-1.394-6.944-3.925-9.475-5.896-3.925-9.475-3.925Z" style="fill: #72ccdb;"/>
  <path d="M100.004,111.154c-16.764,0-30.403-13.639-30.403-30.403s13.639-30.403,30.403-30.403,30.403,13.639,30.403,30.403-13.639,30.403-30.403,30.403ZM100.004,53.214c-15.184,0-27.537,12.353-27.537,27.537s12.353,27.537,27.537,27.537,27.537-12.353,27.537-27.537-12.353-27.537-27.537-27.537Z" style="fill: #72ccdb;"/>
  <path d="M100.004,67.853c-8.969,0-16.266-7.297-16.266-16.266s7.297-16.266,16.266-16.266,16.266,7.297,16.266,16.266-7.297,16.266-16.266,16.266ZM100.004,38.188c-7.388,0-13.399,6.011-13.399,13.399s6.011,13.399,13.399,13.399,13.399-6.011,13.399-13.399-6.011-13.399-13.399-13.399Z" style="fill: #72ccdb;"/>
  <path d="M71.034,97.017c-8.969,0-16.266-7.297-16.266-16.266s7.297-16.266,16.266-16.266,16.266,7.297,16.266,16.266-7.297,16.266-16.266,16.266ZM71.034,67.352c-7.388,0-13.399,6.011-13.399,13.399s6.011,13.399,13.399,13.399,13.399-6.011,13.399-13.399-6.011-13.399-13.399-13.399Z" style="fill: #72ccdb;"/>
  <path d="M128.974,97.15c-8.969,0-16.266-7.297-16.266-16.266s7.297-16.266,16.266-16.266,16.266,7.297,16.266,16.266-7.297,16.266-16.266,16.266ZM128.974,67.484c-7.388,0-13.399,6.011-13.399,13.4s6.011,13.399,13.399,13.399,13.399-6.011,13.399-13.399-6.011-13.4-13.399-13.4Z" style="fill: #72ccdb;"/>
  <path d="M99.987,124.665c-2.532,0-5.046-.598-7.367-1.781-3.871-1.973-6.742-5.334-8.085-9.466-2.771-8.53,1.914-17.725,10.443-20.496,4.132-1.342,8.54-.995,12.411.977,3.871,1.973,6.742,5.334,8.085,9.466,2.771,8.53-1.914,17.724-10.443,20.496h0c-1.654.538-3.353.804-5.044.804ZM100.018,94.984c-1.393,0-2.792.22-4.154.663-7.027,2.283-10.886,9.857-8.603,16.884,1.106,3.404,3.471,6.174,6.66,7.799,3.189,1.624,6.82,1.91,10.224.805h0c7.027-2.284,10.886-9.858,8.603-16.885-1.106-3.404-3.471-6.174-6.66-7.799-1.912-.974-3.983-1.467-6.069-1.467Z" style="fill: #72ccdb;"/>
  <circle cx="100.004" cy="108.391" r="10.234" style="fill: #72ccdb;"/>
</svg>