<?xml version="1.0" encoding="UTF-8"?>
<svg id="Layer_1" data-name="Layer 1" xmlns="http://www.w3.org/2000/svg" width="200" height="200" viewBox="0 0 200 200">
  <path d="M100.149,145.914c-25.317,0-45.914-20.597-45.914-45.914s20.597-45.915,45.914-45.915,45.914,20.597,45.914,45.915-20.597,45.914-45.914,45.914ZM100.149,56.952c-23.737,0-43.048,19.311-43.048,43.048s19.311,43.048,43.048,43.048,43.048-19.311,43.048-43.048-19.311-43.048-43.048-43.048Z" style="fill: #72ccdb;"/>
  <path d="M100.149,160.262c-8.969,0-16.266-7.297-16.266-16.266s7.297-16.266,16.266-16.266,16.266,7.297,16.266,16.266-7.297,16.266-16.266,16.266ZM100.149,130.597c-7.388,0-13.399,6.011-13.399,13.399s6.011,13.399,13.399,13.399,13.399-6.011,13.399-13.399-6.011-13.399-13.399-13.399Z" style="fill: #72ccdb;"/>
  <path d="M100.149,72.269c-8.969,0-16.266-7.297-16.266-16.266s7.297-16.266,16.266-16.266,16.266,7.297,16.266,16.266-7.297,16.266-16.266,16.266ZM100.149,42.604c-7.388,0-13.399,6.011-13.399,13.399s6.011,13.399,13.399,13.399,13.399-6.011,13.399-13.399-6.011-13.399-13.399-13.399Z" style="fill: #72ccdb;"/>
  <path d="M55.369,116.266c-8.969,0-16.266-7.297-16.266-16.266s7.297-16.266,16.266-16.266,16.266,7.297,16.266,16.266-7.297,16.266-16.266,16.266ZM55.369,86.601c-7.388,0-13.399,6.011-13.399,13.399s6.011,13.399,13.399,13.399,13.399-6.011,13.399-13.399-6.011-13.399-13.399-13.399Z" style="fill: #72ccdb;"/>
  <path d="M144.631,116.266c-4.345,0-8.429-1.692-11.502-4.764-3.072-3.072-4.764-7.157-4.764-11.502,0-8.969,7.297-16.266,16.266-16.266s16.266,7.297,16.266,16.266-7.297,16.266-16.266,16.266ZM144.631,86.601c-7.388,0-13.399,6.011-13.399,13.399,0,3.579,1.394,6.944,3.924,9.475,2.531,2.531,5.896,3.925,9.475,3.925,7.388,0,13.399-6.011,13.399-13.399s-6.011-13.399-13.399-13.399Z" style="fill: #72ccdb;"/>
</svg>