<?xml version="1.0" encoding="UTF-8"?>
<svg id="Layer_1" data-name="Layer 1" xmlns="http://www.w3.org/2000/svg" width="200" height="200" viewBox="0 0 200 200">
  <path d="M100,172.649c-8.969,0-16.266-7.297-16.266-16.266s7.297-16.266,16.266-16.266,16.266,7.297,16.266,16.266-7.297,16.266-16.266,16.266ZM100,142.984c-7.389,0-13.4,6.011-13.4,13.399s6.011,13.399,13.4,13.399,13.399-6.011,13.399-13.399-6.011-13.399-13.399-13.399Z" style="fill: #72ccdb;"/>
  <circle cx="100" cy="156.384" r="10.234" style="fill: #72ccdb;"/>
  <circle cx="111.641" cy="54.852" r="2.058" style="fill: #72ccdb;"/>
  <circle cx="119.685" cy="62.896" r="6.279" style="fill: #72ccdb;"/>
  <path d="M131.362,90.839c-4.344,0-8.43-1.692-11.502-4.764h0c-3.072-3.072-4.764-7.156-4.764-11.501s1.692-8.429,4.764-11.501c3.072-3.072,7.157-4.764,11.502-4.764s8.429,1.692,11.502,4.764c3.072,3.072,4.764,7.156,4.764,11.501s-1.692,8.429-4.764,11.501c-3.072,3.072-7.157,4.764-11.502,4.764ZM131.362,61.174c-3.579,0-6.944,1.394-9.475,3.925-2.531,2.531-3.925,5.896-3.925,9.475s1.394,6.944,3.925,9.475h0c2.531,2.531,5.896,3.925,9.475,3.925s6.944-1.394,9.475-3.925c2.531-2.531,3.925-5.896,3.925-9.475s-1.394-6.944-3.925-9.475c-2.531-2.531-5.896-3.925-9.475-3.925Z" style="fill: #72ccdb;"/>
  <circle cx="88.307" cy="54.904" r="2.058" style="fill: #72ccdb;"/>
  <circle cx="80.263" cy="62.948" r="6.279" style="fill: #72ccdb;"/>
  <path d="M68.586,90.883c-4.165,0-8.331-1.585-11.501-4.756-6.342-6.342-6.342-16.661,0-23.003,6.342-6.342,16.661-6.342,23.003,0,6.342,6.342,6.342,16.661,0,23.003h0c-3.171,3.171-7.336,4.756-11.502,4.756ZM68.587,61.232c-3.432,0-6.862,1.306-9.475,3.918-5.224,5.224-5.224,13.726,0,18.95,5.225,5.224,13.726,5.224,18.949,0,5.224-5.224,5.224-13.726,0-18.95-2.612-2.612-6.044-3.918-9.475-3.918Z" style="fill: #72ccdb;"/>
  <circle cx="57.567" cy="85.644" r="2.058" style="fill: #72ccdb;"/>
  <circle cx="49.523" cy="93.688" r="6.279" style="fill: #72ccdb;"/>
  <path d="M37.846,121.631c-4.345,0-8.429-1.692-11.502-4.764-3.072-3.072-4.764-7.156-4.764-11.501s1.692-8.429,4.764-11.502c6.342-6.342,16.661-6.342,23.003,0,3.072,3.072,4.764,7.157,4.764,11.502s-1.692,8.429-4.764,11.501c-3.072,3.072-7.157,4.764-11.502,4.764ZM37.846,91.972c-3.432,0-6.862,1.306-9.475,3.918-2.531,2.531-3.925,5.896-3.925,9.475s1.394,6.944,3.925,9.475c2.531,2.531,5.896,3.925,9.475,3.925s6.944-1.394,9.475-3.925h0c2.531-2.531,3.925-5.896,3.925-9.475s-1.394-6.944-3.925-9.475c-2.612-2.612-6.044-3.918-9.475-3.918Z" style="fill: #72ccdb;"/>
  <circle cx="142.433" cy="85.644" r="2.058" style="fill: #72ccdb;"/>
  <circle cx="150.477" cy="93.688" r="6.279" style="fill: #72ccdb;"/>
  <path d="M162.154,121.631c-4.344,0-8.43-1.692-11.502-4.764h0c-3.072-3.072-4.764-7.156-4.764-11.501s1.692-8.429,4.764-11.502c6.342-6.342,16.661-6.342,23.003,0,3.072,3.072,4.764,7.157,4.764,11.502s-1.692,8.429-4.764,11.501c-3.072,3.072-7.157,4.764-11.502,4.764ZM162.154,91.972c-3.432,0-6.862,1.306-9.475,3.918-2.531,2.531-3.925,5.896-3.925,9.475s1.394,6.944,3.925,9.475h0c2.531,2.531,5.896,3.925,9.475,3.925s6.944-1.394,9.475-3.925c2.531-2.531,3.925-5.896,3.925-9.475s-1.394-6.944-3.925-9.475c-2.612-2.612-6.044-3.918-9.475-3.918Z" style="fill: #72ccdb;"/>
  <path d="M100,59.882c-8.969,0-16.266-7.297-16.266-16.266s7.297-16.266,16.266-16.266,16.266,7.297,16.266,16.266-7.297,16.266-16.266,16.266ZM100,30.217c-7.389,0-13.4,6.011-13.4,13.399s6.011,13.399,13.4,13.399,13.399-6.011,13.399-13.399-6.011-13.399-13.399-13.399Z" style="fill: #72ccdb;"/>
  <circle cx="100" cy="43.616" r="10.234" style="fill: #72ccdb;"/>
  <circle cx="125.305" cy="137.938" r="2.058" style="fill: #72ccdb;"/>
  <circle cx="140.01" cy="125.92" r="8.405" style="fill: #72ccdb;"/>
  <circle cx="150.448" cy="117.389" r="2.058" style="fill: #72ccdb;"/>
  <circle cx="132.753" cy="131.851" r="5.043" style="fill: #72ccdb;"/>
  <circle cx="116.497" cy="145.137" r="6.279" style="fill: #72ccdb;"/>
  <circle cx="74.695" cy="137.938" r="2.058" style="fill: #72ccdb;"/>
  <circle cx="59.99" cy="125.92" r="8.405" style="fill: #72ccdb;"/>
  <circle cx="49.552" cy="117.389" r="2.058" style="fill: #72ccdb;"/>
  <circle cx="67.247" cy="131.851" r="5.043" style="fill: #72ccdb;"/>
  <circle cx="83.503" cy="145.137" r="6.279" style="fill: #72ccdb;"/>
</svg>