<?xml version="1.0" encoding="UTF-8"?>
<svg id="Layer_1" data-name="Layer 1" xmlns="http://www.w3.org/2000/svg" width="200" height="200" viewBox="0 0 200 200">
  <circle cx="88.607" cy="111.389" r="2.058" style="fill: #72ccdb;"/>
  <circle cx="80.563" cy="119.433" r="6.279" style="fill: #72ccdb;"/>
  <path d="M68.886,147.376c-4.345,0-8.429-1.692-11.502-4.764-3.072-3.072-4.764-7.156-4.764-11.501s1.692-8.429,4.764-11.501h0s0,0,0,0c3.072-3.072,7.157-4.764,11.502-4.764s8.429,1.692,11.501,4.764c3.072,3.072,4.764,7.156,4.764,11.501s-1.692,8.429-4.764,11.501c-3.072,3.072-7.157,4.764-11.501,4.764ZM68.886,117.711c-3.579,0-6.944,1.394-9.475,3.925h0c-2.531,2.531-3.925,5.896-3.925,9.475s1.394,6.944,3.925,9.475c2.531,2.531,5.896,3.925,9.475,3.925s6.944-1.394,9.475-3.925c2.531-2.531,3.925-5.896,3.925-9.475s-1.394-6.944-3.925-9.475c-2.531-2.531-5.896-3.925-9.475-3.925Z" style="fill: #72ccdb;"/>
  <circle cx="111.386" cy="88.611" r="2.058" style="fill: #72ccdb;"/>
  <circle cx="119.43" cy="80.567" r="6.279" style="fill: #72ccdb;"/>
  <path d="M131.106,85.148c-4.165,0-8.331-1.585-11.501-4.756-3.072-3.072-4.764-7.157-4.764-11.502s1.692-8.429,4.764-11.501c3.072-3.072,7.157-4.764,11.502-4.764s8.429,1.692,11.502,4.764c3.072,3.072,4.764,7.156,4.764,11.501s-1.692,8.429-4.764,11.502h0c-3.171,3.171-7.336,4.756-11.502,4.756ZM131.106,55.49c-3.579,0-6.944,1.394-9.475,3.925s-3.925,5.896-3.925,9.475,1.394,6.944,3.925,9.475c5.224,5.224,13.725,5.224,18.949,0,2.531-2.531,3.925-5.896,3.925-9.475s-1.394-6.944-3.925-9.475c-2.531-2.531-5.896-3.925-9.475-3.925Z" style="fill: #72ccdb;"/>
  <path d="M99.996,129.387c-7.529,0-15.058-2.866-20.789-8.598-5.553-5.553-8.611-12.936-8.611-20.789s3.058-15.237,8.611-20.79h0c11.464-11.464,30.116-11.464,41.579,0,5.553,5.553,8.611,12.936,8.611,20.79s-3.058,15.236-8.611,20.789c-5.732,5.732-13.261,8.598-20.79,8.598ZM81.233,81.237c-5.012,5.012-7.772,11.676-7.772,18.763s2.76,13.751,7.772,18.763c10.346,10.346,27.18,10.346,37.525,0,5.012-5.012,7.772-11.675,7.772-18.763s-2.76-13.751-7.772-18.763c-10.346-10.345-27.18-10.345-37.525,0h0Z" style="fill: #72ccdb;"/>
  <circle cx="99.996" cy="100" r="10.234" style="fill: #72ccdb;"/>
  <circle cx="88.264" cy="88.268" r="2.058" style="fill: #72ccdb;"/>
  <circle cx="80.22" cy="80.224" r="6.279" style="fill: #72ccdb;"/>
  <path d="M68.543,84.805c-4.165,0-8.331-1.586-11.502-4.757-6.342-6.342-6.342-16.661,0-23.003,3.072-3.072,7.157-4.764,11.502-4.764s8.43,1.692,11.502,4.764h0c3.072,3.072,4.764,7.156,4.764,11.501s-1.692,8.429-4.764,11.502c-3.171,3.171-7.336,4.756-11.502,4.757ZM68.543,55.147c-3.579,0-6.944,1.394-9.475,3.925-5.224,5.224-5.224,13.726,0,18.95,5.224,5.224,13.725,5.224,18.95,0,2.531-2.531,3.925-5.896,3.925-9.475s-1.394-6.944-3.925-9.475h0c-2.531-2.531-5.896-3.925-9.475-3.925Z" style="fill: #72ccdb;"/>
  <circle cx="111.728" cy="111.732" r="2.058" style="fill: #72ccdb;"/>
  <circle cx="119.772" cy="119.776" r="6.279" style="fill: #72ccdb;"/>
  <path d="M131.449,147.719c-4.345,0-8.429-1.692-11.502-4.764-3.072-3.072-4.764-7.156-4.764-11.501s1.692-8.429,4.764-11.502c6.342-6.342,16.661-6.342,23.003,0h0c3.072,3.072,4.764,7.157,4.764,11.502s-1.692,8.429-4.764,11.501c-3.072,3.072-7.157,4.764-11.502,4.764ZM131.449,118.06c-3.431,0-6.863,1.306-9.475,3.918-2.531,2.531-3.925,5.896-3.925,9.475s1.394,6.944,3.925,9.475c2.531,2.531,5.896,3.925,9.475,3.925s6.944-1.394,9.475-3.925c2.531-2.531,3.925-5.896,3.925-9.475s-1.394-6.944-3.925-9.475c-2.612-2.612-6.044-3.918-9.475-3.918Z" style="fill: #72ccdb;"/>
</svg>