<?xml version="1.0" encoding="UTF-8"?>
<svg id="Layer_1" data-name="Layer 1" xmlns="http://www.w3.org/2000/svg" width="200" height="200" viewBox="0 0 200 200">
  <path d="M100.022,63.253c-8.969,0-16.266-7.297-16.266-16.266s7.297-16.266,16.266-16.266,16.266,7.297,16.266,16.266-7.297,16.266-16.266,16.266ZM100.022,33.588c-7.388,0-13.399,6.011-13.399,13.399s6.011,13.399,13.399,13.399,13.399-6.011,13.399-13.399-6.011-13.399-13.399-13.399Z" style="fill: #72ccdb;"/>
  <circle cx="100.022" cy="94.114" r="2.058" style="fill: #72ccdb;"/>
  <circle cx="100.022" cy="46.987" r="10.234" style="fill: #72ccdb;"/>
  <circle cx="100.022" cy="75.123" r="8.405" style="fill: #72ccdb;"/>
  <circle cx="100.022" cy="84.495" r="5.043" style="fill: #72ccdb;"/>
  <circle cx="100.022" cy="105.49" r="6.279" style="fill: #72ccdb;"/>
  <path d="M100.022,138.269c-8.969,0-16.266-7.297-16.266-16.266s7.297-16.266,16.266-16.266,16.266,7.297,16.266,16.266-7.297,16.266-16.266,16.266ZM100.022,108.604c-7.388,0-13.399,6.011-13.399,13.399s6.011,13.399,13.399,13.399,13.399-6.011,13.399-13.399-6.011-13.399-13.399-13.399Z" style="fill: #72ccdb;"/>
  <circle cx="111.663" cy="133.239" r="2.058" style="fill: #72ccdb;"/>
  <circle cx="119.707" cy="141.283" r="6.279" style="fill: #72ccdb;"/>
  <path d="M131.383,169.226c-4.345,0-8.429-1.692-11.501-4.764-3.072-3.072-4.764-7.157-4.764-11.502s1.692-8.429,4.764-11.501c3.072-3.072,7.156-4.764,11.501-4.764s8.429,1.692,11.502,4.764c3.072,3.072,4.764,7.156,4.764,11.501s-1.692,8.429-4.764,11.501c-3.072,3.072-7.157,4.764-11.502,4.764ZM131.383,139.561c-3.579,0-6.944,1.394-9.475,3.925-2.531,2.531-3.925,5.896-3.925,9.475s1.394,6.944,3.925,9.475c2.531,2.531,5.896,3.924,9.475,3.924s6.944-1.394,9.475-3.925c2.531-2.531,3.924-5.896,3.924-9.475s-1.394-6.944-3.924-9.475c-2.531-2.531-5.896-3.925-9.475-3.925Z" style="fill: #72ccdb;"/>
  <circle cx="88.329" cy="133.291" r="2.058" style="fill: #72ccdb;"/>
  <circle cx="80.285" cy="141.335" r="6.279" style="fill: #72ccdb;"/>
  <path d="M68.609,169.278c-4.345,0-8.429-1.692-11.502-4.764-6.342-6.342-6.342-16.661,0-23.003,6.342-6.341,16.661-6.342,23.003,0,6.342,6.342,6.342,16.661,0,23.003h0c-3.072,3.072-7.157,4.764-11.501,4.764ZM68.609,139.619c-3.432,0-6.863,1.306-9.475,3.918-5.224,5.224-5.224,13.726,0,18.95,2.531,2.531,5.896,3.925,9.475,3.925s6.944-1.394,9.475-3.925c5.224-5.224,5.224-13.726,0-18.95-2.612-2.612-6.044-3.918-9.475-3.918Z" style="fill: #72ccdb;"/>
</svg>