<?xml version="1.0" encoding="UTF-8"?>
<svg id="Layer_1" data-name="Layer 1" xmlns="http://www.w3.org/2000/svg" width="200" height="200" viewBox="0 0 200 200">
  <path d="M100,123.599c-13.013,0-23.599-10.586-23.599-23.599s10.587-23.599,23.599-23.599,23.599,10.586,23.599,23.599-10.587,23.599-23.599,23.599ZM100,79.267c-11.432,0-20.733,9.301-20.733,20.733s9.301,20.733,20.733,20.733,20.733-9.301,20.733-20.733-9.301-20.733-20.733-20.733Z" style="fill: #72ccdb;"/>
  <path d="M55.37,123.599c-13.013,0-23.599-10.586-23.599-23.599s10.587-23.599,23.599-23.599,23.599,10.586,23.599,23.599-10.587,23.599-23.599,23.599ZM55.37,79.267c-11.432,0-20.733,9.301-20.733,20.733s9.301,20.733,20.733,20.733,20.733-9.301,20.733-20.733-9.301-20.733-20.733-20.733Z" style="fill: #72ccdb;"/>
  <path d="M77.685,116.266c-8.969,0-16.266-7.297-16.266-16.266s7.297-16.266,16.266-16.266,16.266,7.297,16.266,16.266-7.297,16.266-16.266,16.266ZM77.685,86.601c-7.388,0-13.399,6.011-13.399,13.399s6.011,13.399,13.399,13.399,13.4-6.011,13.4-13.399-6.011-13.399-13.4-13.399Z" style="fill: #72ccdb;"/>
  <path d="M33.054,116.266c-8.969,0-16.266-7.297-16.266-16.266s7.297-16.266,16.266-16.266,16.266,7.297,16.266,16.266-7.297,16.266-16.266,16.266ZM33.054,86.601c-7.388,0-13.399,6.011-13.399,13.399s6.011,13.399,13.399,13.399,13.399-6.011,13.399-13.399-6.011-13.399-13.399-13.399Z" style="fill: #72ccdb;"/>
  <path d="M144.631,123.599c-13.013,0-23.599-10.586-23.599-23.599s10.587-23.599,23.599-23.599,23.599,10.586,23.599,23.599-10.587,23.599-23.599,23.599ZM144.631,79.267c-11.432,0-20.733,9.301-20.733,20.733s9.301,20.733,20.733,20.733,20.733-9.301,20.733-20.733-9.301-20.733-20.733-20.733Z" style="fill: #72ccdb;"/>
  <path d="M166.946,116.266c-8.969,0-16.266-7.297-16.266-16.266s7.297-16.266,16.266-16.266,16.266,7.297,16.266,16.266-7.297,16.266-16.266,16.266ZM166.946,86.601c-7.388,0-13.399,6.011-13.399,13.399s6.011,13.399,13.399,13.399,13.399-6.011,13.399-13.399-6.011-13.399-13.399-13.399Z" style="fill: #72ccdb;"/>
  <path d="M122.315,116.266c-8.969,0-16.266-7.297-16.266-16.266s7.297-16.266,16.266-16.266,16.266,7.297,16.266,16.266-7.297,16.266-16.266,16.266ZM122.315,86.601c-7.388,0-13.399,6.011-13.399,13.399s6.011,13.399,13.399,13.399,13.399-6.011,13.399-13.399-6.011-13.399-13.399-13.399Z" style="fill: #72ccdb;"/>
</svg>