<?xml version="1.0" encoding="UTF-8"?>
<svg id="Layer_1" data-name="Layer 1" xmlns="http://www.w3.org/2000/svg" width="200" height="200" viewBox="0 0 200 200">
  <circle cx="99.996" cy="47.5" r="10.234" style="fill: #72ccdb;"/>
  <circle cx="131.677" cy="152.5" r="10.234" style="fill: #72ccdb;"/>
  <circle cx="68.315" cy="152.5" r="10.234" style="fill: #72ccdb;"/>
  <path d="M99.996,153.844c-16.212,0-29.401-13.189-29.401-29.401s13.189-29.401,29.401-29.401,29.401,13.189,29.401,29.401-13.189,29.401-29.401,29.401ZM99.996,97.908c-14.631,0-26.535,11.903-26.535,26.534s11.903,26.535,26.535,26.535,26.534-11.903,26.534-26.535-11.903-26.534-26.534-26.534Z" style="fill: #72ccdb;"/>
  <circle cx="99.996" cy="75.389" r="2.058" style="fill: #72ccdb;"/>
  <circle cx="99.996" cy="94.38" r="8.405" style="fill: #72ccdb;"/>
  <circle cx="99.996" cy="107.861" r="2.058" style="fill: #72ccdb;"/>
  <circle cx="99.996" cy="85.008" r="5.043" style="fill: #72ccdb;"/>
  <circle cx="99.996" cy="64.013" r="6.279" style="fill: #72ccdb;"/>
  <path d="M99.996,63.765c-8.969,0-16.266-7.297-16.266-16.266s7.297-16.266,16.266-16.266,16.266,7.297,16.266,16.266-7.297,16.266-16.266,16.266ZM99.996,34.1c-7.388,0-13.399,6.011-13.399,13.399s6.011,13.399,13.399,13.399,13.399-6.011,13.399-13.399-6.011-13.399-13.399-13.399Z" style="fill: #72ccdb;"/>
  <circle cx="88.036" cy="132.779" r="2.058" style="fill: #72ccdb;"/>
  <circle cx="79.992" cy="140.823" r="6.279" style="fill: #72ccdb;"/>
  <path d="M68.315,168.766c-4.345,0-8.429-1.692-11.502-4.764-6.342-6.342-6.342-16.661,0-23.003,6.342-6.342,16.662-6.342,23.003,0,3.072,3.072,4.764,7.157,4.764,11.502s-1.692,8.429-4.764,11.501h0s0,0,0,0c-3.072,3.072-7.156,4.764-11.501,4.764ZM68.315,139.107c-3.432,0-6.863,1.306-9.475,3.918-5.224,5.225-5.224,13.726,0,18.95,2.531,2.531,5.896,3.925,9.475,3.925s6.944-1.394,9.475-3.925h0c2.531-2.531,3.925-5.896,3.925-9.475s-1.394-6.944-3.925-9.475c-2.612-2.612-6.044-3.918-9.475-3.918Z" style="fill: #72ccdb;"/>
  <circle cx="111.956" cy="132.779" r="2.058" style="fill: #72ccdb;"/>
  <circle cx="120" cy="140.823" r="6.279" style="fill: #72ccdb;"/>
  <path d="M131.677,168.766c-4.345,0-8.429-1.692-11.502-4.764-6.342-6.342-6.342-16.661,0-23.003,6.342-6.342,16.661-6.342,23.003,0,3.072,3.072,4.764,7.157,4.764,11.502,0,4.345-1.692,8.429-4.764,11.501-3.072,3.072-7.157,4.764-11.501,4.764ZM131.677,139.107c-3.432,0-6.863,1.306-9.475,3.918-5.224,5.225-5.224,13.726,0,18.95,2.531,2.531,5.896,3.925,9.475,3.925s6.944-1.394,9.475-3.925c2.531-2.531,3.925-5.896,3.925-9.475s-1.394-6.944-3.925-9.475c-2.612-2.612-6.044-3.918-9.475-3.918Z" style="fill: #72ccdb;"/>
</svg>