<?xml version="1.0" encoding="UTF-8"?>
<svg id="Layer_1" data-name="Layer 1" xmlns="http://www.w3.org/2000/svg" width="200" height="200" viewBox="0 0 200 200">
  <path d="M100.152,138.494c-25.317,0-45.914-20.597-45.914-45.914s20.597-45.915,45.914-45.915,45.915,20.597,45.915,45.915-20.597,45.914-45.915,45.914ZM100.152,49.531c-23.737,0-43.048,19.311-43.048,43.048s19.311,43.048,43.048,43.048,43.048-19.311,43.048-43.048-19.311-43.048-43.048-43.048Z" style="fill: #72ccdb;"/>
  <path d="M138.283,87.426c-2.532,0-5.046-.598-7.367-1.781-3.871-1.973-6.743-5.334-8.085-9.466-1.342-4.132-.995-8.54.977-12.411,1.973-3.871,5.334-6.743,9.466-8.085,8.531-2.769,17.725,1.913,20.496,10.443,2.771,8.53-1.914,17.725-10.443,20.496-1.654.537-3.353.804-5.044.804ZM138.29,57.752c-1.369,0-2.761.212-4.131.657-3.404,1.106-6.174,3.471-7.799,6.66-1.625,3.189-1.911,6.82-.804,10.224,1.106,3.404,3.471,6.174,6.66,7.799,3.188,1.624,6.819,1.91,10.224.804,7.027-2.283,10.886-9.857,8.603-16.884-1.838-5.656-7.104-9.26-12.753-9.26Z" style="fill: #72ccdb;"/>
  <circle cx="138.3" cy="71.152" r="10.234" style="fill: #72ccdb;"/>
  <path d="M61.69,87.426c-2.532,0-5.046-.598-7.367-1.781-3.871-1.973-6.742-5.334-8.085-9.466-1.342-4.132-.995-8.54.977-12.411,1.973-3.871,5.334-6.743,9.466-8.085s8.54-.995,12.411.977c3.871,1.973,6.742,5.334,8.085,9.466,1.342,4.132.996,8.54-.977,12.411-1.972,3.871-5.334,6.743-9.466,8.085-1.654.537-3.353.804-5.044.804ZM61.721,57.746c-1.393,0-2.792.22-4.154.663-3.404,1.106-6.174,3.471-7.799,6.66s-1.911,6.82-.804,10.224c1.106,3.404,3.471,6.174,6.66,7.799,3.189,1.624,6.82,1.911,10.224.804h0c3.404-1.106,6.174-3.471,7.799-6.66,1.625-3.189,1.911-6.82.804-10.224-1.106-3.404-3.471-6.174-6.66-7.799-1.912-.974-3.983-1.467-6.069-1.467Z" style="fill: #72ccdb;"/>
  <circle cx="61.707" cy="71.152" r="10.234" style="fill: #72ccdb;"/>
  <path d="M100.135,153.335c-2.532,0-5.046-.598-7.367-1.781-3.871-1.973-6.742-5.334-8.085-9.466-1.342-4.132-.995-8.54.977-12.411,1.973-3.871,5.334-6.742,9.466-8.085,4.132-1.342,8.54-.995,12.411.977,3.871,1.973,6.742,5.334,8.085,9.466,1.342,4.132.996,8.54-.977,12.411-1.972,3.871-5.335,6.742-9.466,8.085h0c-1.654.537-3.353.804-5.044.804ZM100.166,123.655c-1.393,0-2.792.22-4.154.663-3.404,1.106-6.174,3.471-7.799,6.66-1.625,3.189-1.911,6.82-.804,10.224,1.106,3.404,3.471,6.174,6.66,7.799,3.189,1.625,6.82,1.911,10.224.804h0c3.404-1.106,6.174-3.471,7.799-6.66,1.625-3.189,1.911-6.82.804-10.224-1.106-3.404-3.471-6.174-6.66-7.799-1.912-.974-3.983-1.467-6.069-1.467Z" style="fill: #72ccdb;"/>
  <circle cx="100.152" cy="137.061" r="10.234" style="fill: #72ccdb;"/>
</svg>