<?xml version="1.0" encoding="UTF-8"?>
<svg id="Layer_1" data-name="Layer 1" xmlns="http://www.w3.org/2000/svg" width="200" height="200" viewBox="0 0 200 200">
  <path d="M100,138.991c-30.668,0-55.618-24.95-55.618-55.618s24.95-55.619,55.618-55.619,55.618,24.95,55.618,55.619-24.95,55.618-55.618,55.618ZM100,30.621c-29.088,0-52.752,23.665-52.752,52.752s23.665,52.752,52.752,52.752,52.752-23.665,52.752-52.752-23.665-52.752-52.752-52.752Z" style="fill: #72ccdb;"/>
  <path d="M146.163,70.814c-2.532,0-5.046-.598-7.367-1.781-3.871-1.973-6.742-5.334-8.085-9.466-1.342-4.132-.995-8.54.977-12.411,1.973-3.871,5.334-6.743,9.466-8.085,4.132-1.343,8.54-.995,12.411.977,3.871,1.973,6.742,5.334,8.085,9.466,1.342,4.132.996,8.54-.977,12.411-1.973,3.871-5.335,6.743-9.467,8.085-1.654.537-3.353.804-5.044.804ZM146.194,41.134c-1.393,0-2.792.22-4.154.663-3.404,1.106-6.174,3.471-7.799,6.66s-1.911,6.82-.804,10.224c1.106,3.404,3.471,6.174,6.66,7.799,3.189,1.624,6.82,1.911,10.224.804h0c3.404-1.106,6.174-3.471,7.799-6.66,1.625-3.189,1.911-6.82.804-10.224-1.106-3.404-3.471-6.174-6.66-7.799-1.912-.974-3.983-1.467-6.069-1.467Z" style="fill: #72ccdb;"/>
  <circle cx="146.18" cy="54.54" r="10.234" style="fill: #72ccdb;"/>
  <path d="M53.803,70.814c-2.532,0-5.046-.598-7.367-1.781-3.871-1.973-6.743-5.334-8.085-9.466-1.343-4.132-.996-8.54.977-12.411,1.972-3.871,5.334-6.743,9.467-8.085,8.53-2.77,17.724,1.914,20.496,10.443,2.771,8.53-1.913,17.725-10.443,20.496-1.654.537-3.353.804-5.043.804ZM53.811,41.139c-1.369,0-2.76.212-4.131.657-3.404,1.106-6.173,3.471-7.798,6.66-1.625,3.189-1.911,6.82-.805,10.224s3.471,6.174,6.66,7.799c3.189,1.625,6.82,1.911,10.224.804h0c7.027-2.283,10.886-9.857,8.603-16.884-1.838-5.656-7.104-9.26-12.753-9.26Z" style="fill: #72ccdb;"/>
  <circle cx="53.82" cy="54.54" r="10.234" style="fill: #72ccdb;"/>
  <path d="M53.803,128.479c-2.532,0-5.046-.598-7.367-1.781-3.871-1.973-6.743-5.334-8.085-9.466-1.343-4.132-.996-8.54.977-12.411,1.972-3.871,5.334-6.742,9.467-8.085,8.529-2.77,17.724,1.913,20.496,10.443,1.343,4.132.996,8.54-.977,12.411-1.972,3.871-5.335,6.742-9.467,8.085h0c-1.654.537-3.353.804-5.043.804ZM53.811,98.805c-1.369,0-2.76.212-4.131.657-3.404,1.106-6.173,3.471-7.798,6.66-1.625,3.189-1.911,6.82-.805,10.224s3.471,6.174,6.66,7.799c3.189,1.625,6.82,1.911,10.224.804h0c3.404-1.106,6.173-3.471,7.798-6.66,1.625-3.189,1.911-6.82.805-10.224-1.838-5.656-7.104-9.26-12.753-9.26Z" style="fill: #72ccdb;"/>
  <circle cx="53.82" cy="112.206" r="10.234" style="fill: #72ccdb;"/>
  <path d="M146.163,128.479c-2.532,0-5.046-.598-7.367-1.781-3.871-1.973-6.742-5.334-8.085-9.466-1.342-4.132-.995-8.54.977-12.411,1.973-3.871,5.334-6.742,9.466-8.085,4.132-1.342,8.54-.996,12.411.977,3.871,1.972,6.742,5.334,8.085,9.466,1.342,4.132.996,8.54-.977,12.411-1.973,3.871-5.335,6.742-9.467,8.085h0c-1.654.537-3.353.804-5.044.804ZM146.194,98.8c-1.393,0-2.792.22-4.155.663-3.404,1.106-6.174,3.471-7.799,6.66-1.625,3.189-1.911,6.82-.804,10.224,1.106,3.404,3.471,6.174,6.66,7.799,3.189,1.625,6.82,1.911,10.224.804h0c3.404-1.106,6.174-3.471,7.799-6.66,1.625-3.189,1.911-6.82.805-10.224-1.106-3.404-3.472-6.174-6.661-7.799-1.912-.974-3.983-1.467-6.069-1.467Z" style="fill: #72ccdb;"/>
  <circle cx="146.18" cy="112.206" r="10.234" style="fill: #72ccdb;"/>
</svg>