<?xml version="1.0" encoding="UTF-8"?>
<svg id="Layer_1" data-name="Layer 1" xmlns="http://www.w3.org/2000/svg" width="200" height="200" viewBox="0 0 200 200">
  <path d="M100,156.101c-9.871,0-17.902-8.031-17.902-17.902s8.031-17.902,17.902-17.902,17.902,8.031,17.902,17.902-8.031,17.902-17.902,17.902ZM100,123.163c-8.291,0-15.036,6.745-15.036,15.036s6.745,15.036,15.036,15.036,15.036-6.745,15.036-15.036-6.745-15.036-15.036-15.036Z" style="fill: #72ccdb;"/>
  <circle cx="100" cy="88.054" r="2.058" style="fill: #72ccdb;"/>
  <circle cx="100" cy="138.199" r="10.234" style="fill: #72ccdb;"/>
  <circle cx="100" cy="107.045" r="8.405" style="fill: #72ccdb;"/>
  <circle cx="100" cy="120.526" r="2.058" style="fill: #72ccdb;"/>
  <circle cx="100" cy="97.672" r="5.043" style="fill: #72ccdb;"/>
  <circle cx="100" cy="76.678" r="6.279" style="fill: #72ccdb;"/>
  <path d="M100,76.43c-8.969,0-16.266-7.297-16.266-16.266s7.297-16.266,16.266-16.266,16.266,7.297,16.266,16.266-7.297,16.266-16.266,16.266ZM100,46.765c-7.388,0-13.399,6.011-13.399,13.399s6.011,13.4,13.399,13.4,13.399-6.011,13.399-13.4-6.011-13.399-13.399-13.399Z" style="fill: #72ccdb;"/>
</svg>