<?xml version="1.0" encoding="UTF-8"?>
<svg id="Layer_1" data-name="Layer 1" xmlns="http://www.w3.org/2000/svg" width="200" height="200" viewBox="0 0 200 200">
  <path d="M100.004,85.391c-8.969,0-16.266-7.297-16.266-16.266s7.297-16.266,16.266-16.266,16.266,7.297,16.266,16.266-7.297,16.266-16.266,16.266ZM100.004,55.726c-7.388,0-13.399,6.011-13.399,13.399s6.011,13.399,13.399,13.399,13.399-6.011,13.399-13.399-6.011-13.399-13.399-13.399Z" style="fill: #72ccdb;"/>
  <circle cx="100.004" cy="69.125" r="10.234" style="fill: #72ccdb;"/>
  <circle cx="111.645" cy="80.361" r="2.058" style="fill: #72ccdb;"/>
  <circle cx="119.688" cy="88.405" r="6.279" style="fill: #72ccdb;"/>
  <path d="M131.365,116.34c-4.165,0-8.331-1.586-11.502-4.757h0c-6.342-6.342-6.342-16.661,0-23.003,6.342-6.342,16.662-6.342,23.003,0,3.072,3.072,4.764,7.157,4.764,11.502s-1.692,8.429-4.764,11.501c-3.171,3.171-7.336,4.757-11.501,4.757ZM121.89,109.557c5.225,5.224,13.726,5.224,18.95,0,2.531-2.531,3.925-5.896,3.925-9.475s-1.394-6.944-3.925-9.475c-5.224-5.224-13.726-5.224-18.95,0-5.224,5.224-5.223,13.725,0,18.95h0Z" style="fill: #72ccdb;"/>
  <circle cx="88.311" cy="80.413" r="2.058" style="fill: #72ccdb;"/>
  <circle cx="80.267" cy="88.457" r="6.279" style="fill: #72ccdb;"/>
  <path d="M68.59,116.4c-4.345,0-8.429-1.692-11.501-4.764-3.072-3.072-4.764-7.156-4.764-11.501s1.692-8.429,4.764-11.501c3.072-3.072,7.156-4.764,11.501-4.764s8.429,1.692,11.502,4.764c3.072,3.072,4.764,7.156,4.764,11.501s-1.692,8.429-4.764,11.501c-3.072,3.072-7.157,4.764-11.502,4.764ZM68.59,86.735c-3.579,0-6.944,1.394-9.475,3.925s-3.925,5.896-3.925,9.475,1.394,6.944,3.925,9.475,5.896,3.925,9.475,3.925,6.944-1.394,9.475-3.925c2.531-2.531,3.924-5.896,3.924-9.475s-1.394-6.944-3.924-9.475c-2.531-2.531-5.896-3.925-9.475-3.925Z" style="fill: #72ccdb;"/>
  <circle cx="57.571" cy="111.154" r="2.058" style="fill: #72ccdb;"/>
  <circle cx="49.527" cy="119.198" r="6.279" style="fill: #72ccdb;"/>
  <path d="M37.85,147.14c-4.345,0-8.429-1.692-11.501-4.764-3.072-3.072-4.764-7.157-4.764-11.502s1.692-8.429,4.764-11.501c3.072-3.072,7.156-4.764,11.501-4.764s8.429,1.692,11.501,4.764c3.072,3.072,4.764,7.156,4.764,11.501s-1.692,8.429-4.764,11.502c-3.072,3.072-7.156,4.764-11.501,4.764ZM37.85,117.475c-3.579,0-6.944,1.394-9.475,3.925s-3.925,5.896-3.925,9.475,1.394,6.944,3.925,9.475c2.531,2.531,5.896,3.924,9.475,3.924s6.944-1.394,9.475-3.924c2.531-2.531,3.925-5.896,3.925-9.475s-1.394-6.944-3.925-9.475-5.896-3.925-9.475-3.925Z" style="fill: #72ccdb;"/>
  <circle cx="142.437" cy="111.154" r="2.058" style="fill: #72ccdb;"/>
  <circle cx="150.481" cy="119.198" r="6.279" style="fill: #72ccdb;"/>
  <path d="M162.157,147.132c-4.165,0-8.33-1.585-11.501-4.756h0c-3.072-3.072-4.764-7.157-4.764-11.502,0-4.345,1.692-8.429,4.764-11.501,3.072-3.072,7.157-4.764,11.501-4.764s8.429,1.692,11.502,4.764c6.342,6.342,6.342,16.661,0,23.003-3.171,3.171-7.336,4.756-11.502,4.756ZM152.683,140.35c5.225,5.224,13.726,5.223,18.95,0,5.224-5.225,5.224-13.726,0-18.95-2.531-2.531-5.896-3.925-9.475-3.925s-6.944,1.394-9.475,3.925c-2.531,2.531-3.925,5.896-3.925,9.475s1.394,6.944,3.925,9.475h0Z" style="fill: #72ccdb;"/>
</svg>