<?xml version="1.0" encoding="UTF-8"?>
<svg id="Layer_1" data-name="Layer 1" xmlns="http://www.w3.org/2000/svg" width="200" height="200" viewBox="0 0 200 200">
  <path d="M100,129.401c-16.212,0-29.401-13.189-29.401-29.401s13.189-29.401,29.401-29.401,29.401,13.189,29.401,29.401-13.189,29.401-29.401,29.401ZM100,73.465c-14.631,0-26.535,11.903-26.535,26.535s11.903,26.535,26.535,26.535,26.535-11.903,26.535-26.535-11.903-26.535-26.535-26.535Z" style="fill: #72ccdb;"/>
  <circle cx="100" cy="50.947" r="2.058" style="fill: #72ccdb;"/>
  <circle cx="100" cy="100" r="10.234" style="fill: #72ccdb;"/>
  <circle cx="100" cy="69.937" r="8.405" style="fill: #72ccdb;"/>
  <circle cx="100" cy="83.418" r="2.058" style="fill: #72ccdb;"/>
  <circle cx="100" cy="116.236" r="2.058" style="fill: #72ccdb;"/>
  <circle cx="100" cy="60.565" r="5.043" style="fill: #72ccdb;"/>
  <circle cx="100" cy="39.571" r="6.279" style="fill: #72ccdb;"/>
  <path d="M100,39.323c-8.969,0-16.266-7.297-16.266-16.266s7.297-16.266,16.266-16.266,16.266,7.297,16.266,16.266-7.297,16.266-16.266,16.266ZM100,9.658c-7.388,0-13.399,6.011-13.399,13.399s6.011,13.399,13.399,13.399,13.399-6.011,13.399-13.399-6.011-13.399-13.399-13.399Z" style="fill: #72ccdb;"/>
  <circle cx="100" cy="149.053" r="2.058" style="fill: #72ccdb;"/>
  <circle cx="100" cy="130.063" r="8.405" style="fill: #72ccdb;"/>
  <circle cx="100" cy="139.435" r="5.043" style="fill: #72ccdb;"/>
  <circle cx="100" cy="160.429" r="6.279" style="fill: #72ccdb;"/>
  <path d="M100,193.209c-8.969,0-16.266-7.297-16.266-16.266s7.297-16.266,16.266-16.266,16.266,7.297,16.266,16.266-7.297,16.266-16.266,16.266ZM100,163.543c-7.388,0-13.399,6.011-13.399,13.399s6.011,13.399,13.399,13.399,13.399-6.011,13.399-13.399-6.011-13.399-13.399-13.399Z" style="fill: #72ccdb;"/>
  <circle cx="116.592" cy="100" r="2.058" style="fill: #72ccdb;"/>
  <circle cx="127.968" cy="100" r="6.279" style="fill: #72ccdb;"/>
  <path d="M144.481,116.266c-8.969,0-16.266-7.297-16.266-16.266s7.297-16.266,16.266-16.266,16.266,7.297,16.266,16.266-7.297,16.266-16.266,16.266ZM144.481,86.601c-7.388,0-13.399,6.011-13.399,13.399s6.011,13.399,13.399,13.399,13.399-6.011,13.399-13.399-6.011-13.399-13.399-13.399Z" style="fill: #72ccdb;"/>
  <circle cx="83.408" cy="100" r="2.058" style="fill: #72ccdb;"/>
  <circle cx="72.032" cy="100" r="6.279" style="fill: #72ccdb;"/>
  <path d="M55.519,116.266c-8.969,0-16.266-7.297-16.266-16.266s7.297-16.266,16.266-16.266,16.266,7.297,16.266,16.266-7.297,16.266-16.266,16.266ZM55.519,86.601c-7.388,0-13.399,6.011-13.399,13.399s6.011,13.399,13.399,13.399,13.399-6.011,13.399-13.399-6.011-13.399-13.399-13.399Z" style="fill: #72ccdb;"/>
</svg>