<?xml version="1.0" encoding="UTF-8"?>
<svg id="Layer_1" data-name="Layer 1" xmlns="http://www.w3.org/2000/svg" width="200" height="200" viewBox="0 0 200 200">
  <circle cx="100.143" cy="94.985" r="2.058" style="fill: #72ccdb;"/>
  <circle cx="100.374" cy="83.611" r="6.279" style="fill: #72ccdb;"/>
  <path d="M100.71,85.141c-8.969,0-16.266-7.297-16.266-16.266s7.297-16.266,16.266-16.266,16.266,7.297,16.266,16.266-7.297,16.266-16.266,16.266ZM100.71,55.476c-7.389,0-13.4,6.011-13.4,13.4s6.011,13.399,13.4,13.399,13.399-6.011,13.399-13.399-6.011-13.4-13.399-13.4Z" style="fill: #72ccdb;"/>
  <circle cx="100.71" cy="68.875" r="10.234" style="fill: #72ccdb;"/>
  <circle cx="92.641" cy="100.966" r="2.058" style="fill: #72ccdb;"/>
  <circle cx="81.895" cy="97.232" r="6.279" style="fill: #72ccdb;"/>
  <path d="M68.002,108.632c-1.691,0-3.389-.267-5.043-.804-4.132-1.343-7.494-4.214-9.467-8.085-1.972-3.871-2.319-8.279-.977-12.411,1.342-4.132,4.214-7.494,8.085-9.466,3.871-1.972,8.279-2.319,12.411-.977,4.132,1.343,7.494,4.214,9.467,8.085,1.972,3.871,2.319,8.279.977,12.411-1.342,4.132-4.214,7.494-8.085,9.466-2.321,1.183-4.836,1.781-7.367,1.781ZM67.97,78.953c-2.086,0-4.157.493-6.069,1.467-3.189,1.625-5.555,4.395-6.661,7.799s-.82,7.035.805,10.224c1.625,3.189,4.394,5.554,7.798,6.66,1.37.445,2.763.657,4.131.657,5.65,0,10.915-3.603,12.753-9.26,1.106-3.404.82-7.035-.805-10.224-1.625-3.189-4.394-5.554-7.798-6.66-1.363-.443-2.762-.663-4.155-.663Z" style="fill: #72ccdb;"/>
  <circle cx="67.985" cy="92.359" r="10.234" style="fill: #72ccdb;"/>
  <circle cx="96.008" cy="109.675" r="2.058" style="fill: #72ccdb;"/>
  <circle cx="89.136" cy="118.74" r="6.279" style="fill: #72ccdb;"/>
  <path d="M80.169,146.734c-3.407,0-6.717-1.069-9.526-3.11-3.515-2.554-5.825-6.323-6.505-10.615s.353-8.59,2.906-12.105c2.554-3.515,6.323-5.825,10.615-6.505,4.291-.68,8.59.352,12.105,2.906,7.256,5.272,8.87,15.464,3.599,22.72-2.554,3.515-6.323,5.825-10.615,6.504-.861.136-1.723.204-2.579.204ZM80.232,117.062c-.705,0-1.415.056-2.125.168-3.535.56-6.64,2.463-8.744,5.358h0c-2.104,2.896-2.954,6.437-2.394,9.972.56,3.535,2.463,6.64,5.358,8.744,2.896,2.104,6.437,2.954,9.972,2.394,3.535-.56,6.64-2.463,8.744-5.358,4.343-5.977,3.013-14.373-2.964-18.716-2.314-1.682-5.041-2.562-7.848-2.562Z" style="fill: #72ccdb;"/>
  <circle cx="80.203" cy="130.464" r="10.234" style="fill: #72ccdb;"/>
  <circle cx="103.894" cy="109.675" r="2.058" style="fill: #72ccdb;"/>
  <circle cx="110.392" cy="119.012" r="6.279" style="fill: #72ccdb;"/>
  <path d="M118.804,147.391c-5.034,0-10.002-2.324-13.181-6.699h0c-5.271-7.256-3.657-17.448,3.599-22.72,3.515-2.554,7.814-3.586,12.105-2.906,4.291.68,8.061,2.99,10.615,6.505,2.554,3.515,3.586,7.814,2.906,12.105-.68,4.291-2.99,8.061-6.505,10.615-2.881,2.093-6.225,3.101-9.539,3.101ZM107.942,139.007c4.343,5.977,12.739,7.307,18.717,2.964,2.896-2.103,4.798-5.209,5.358-8.744.56-3.535-.29-7.077-2.394-9.972-2.104-2.896-5.209-4.799-8.744-5.359-3.536-.56-7.077.29-9.972,2.394-5.977,4.343-7.307,12.739-2.964,18.717h0Z" style="fill: #72ccdb;"/>
  <circle cx="118.782" cy="131.131" r="10.234" style="fill: #72ccdb;"/>
  <circle cx="107.009" cy="101.024" r="2.058" style="fill: #72ccdb;"/>
  <circle cx="117.897" cy="97.73" r="6.279" style="fill: #72ccdb;"/>
  <path d="M131.998,109.769c-2.532,0-5.046-.598-7.367-1.781-3.871-1.972-6.743-5.334-8.085-9.466-1.343-4.132-.996-8.54.977-12.411,1.972-3.871,5.334-6.742,9.467-8.085,4.132-1.342,8.54-.995,12.411.977,3.871,1.973,6.743,5.334,8.085,9.466,1.343,4.132.996,8.54-.977,12.411-1.972,3.871-5.334,6.742-9.467,8.085h0c-1.654.537-3.353.804-5.044.804ZM132.03,80.089c-1.393,0-2.792.22-4.155.663-3.404,1.106-6.173,3.471-7.798,6.66-1.625,3.189-1.911,6.82-.805,10.224s3.471,6.174,6.66,7.799c3.189,1.625,6.82,1.911,10.224.804,3.404-1.106,6.173-3.471,7.798-6.66,1.625-3.189,1.911-6.82.805-10.224-1.106-3.404-3.471-6.174-6.661-7.799-1.912-.974-3.983-1.467-6.069-1.467Z" style="fill: #72ccdb;"/>
  <circle cx="132.015" cy="93.495" r="10.234" style="fill: #72ccdb;"/>
</svg>