<?xml version="1.0" encoding="UTF-8"?>
<svg id="Layer_1" data-name="Layer 1" xmlns="http://www.w3.org/2000/svg" width="200" height="200" viewBox="0 0 200 200">
  <path d="M100.023,117.343c-7.978,0-14.468-6.49-14.468-14.468s6.49-14.468,14.468-14.468,14.468,6.49,14.468,14.468-6.49,14.468-14.468,14.468ZM100.023,90.956c-6.572,0-11.919,5.347-11.919,11.919s5.347,11.919,11.919,11.919,11.919-5.347,11.919-11.919-5.347-11.919-11.919-11.919Z" style="fill: #72ccdb;"/>
  <circle cx="100.023" cy="59.242" r="1.83" style="fill: #72ccdb;"/>
  <circle cx="100.023" cy="102.875" r="9.104" style="fill: #72ccdb;"/>
  <circle cx="100.023" cy="129.615" r="7.476" style="fill: #72ccdb;"/>
  <circle cx="100.023" cy="117.624" r="1.83" style="fill: #72ccdb;"/>
  <circle cx="100.023" cy="137.952" r="4.486" style="fill: #72ccdb;"/>
  <circle cx="100.023" cy="76.134" r="7.476" style="fill: #72ccdb;"/>
  <circle cx="100.023" cy="88.125" r="1.83" style="fill: #72ccdb;"/>
  <circle cx="100.023" cy="67.797" r="4.486" style="fill: #72ccdb;"/>
  <circle cx="100.023" cy="49.123" r="5.585" style="fill: #72ccdb;"/>
  <path d="M100.023,48.902c-7.978,0-14.468-6.49-14.468-14.468s6.49-14.468,14.468-14.468,14.468,6.49,14.468,14.468-6.49,14.468-14.468,14.468ZM100.023,22.515c-6.572,0-11.919,5.347-11.919,11.919s5.347,11.919,11.919,11.919,11.919-5.347,11.919-11.919-5.347-11.919-11.919-11.919Z" style="fill: #72ccdb;"/>
  <circle cx="110.377" cy="112.869" r="1.83" style="fill: #72ccdb;"/>
  <circle cx="117.533" cy="120.024" r="5.585" style="fill: #72ccdb;"/>
  <path d="M127.919,144.872c-3.705,0-7.41-1.41-10.231-4.231h0c-2.733-2.733-4.238-6.366-4.238-10.231s1.505-7.498,4.238-10.23c2.733-2.733,6.366-4.238,10.231-4.238s7.498,1.505,10.231,4.238c2.733,2.732,4.238,6.366,4.238,10.23s-1.505,7.498-4.238,10.231c-2.821,2.821-6.526,4.231-10.231,4.231ZM119.491,138.838c4.647,4.646,12.209,4.646,16.855,0,2.251-2.251,3.491-5.244,3.491-8.428s-1.24-6.177-3.491-8.428c-2.251-2.251-5.244-3.491-8.428-3.491s-6.177,1.24-8.428,3.491c-2.251,2.251-3.491,5.244-3.491,8.428s1.24,6.177,3.491,8.428h0Z" style="fill: #72ccdb;"/>
  <circle cx="89.623" cy="112.915" r="1.83" style="fill: #72ccdb;"/>
  <circle cx="82.468" cy="120.07" r="5.585" style="fill: #72ccdb;"/>
  <path d="M72.081,144.925c-3.865,0-7.498-1.505-10.231-4.238-2.733-2.732-4.238-6.366-4.238-10.23s1.505-7.498,4.238-10.231c5.641-5.641,14.82-5.641,20.461,0,2.733,2.733,4.238,6.366,4.238,10.231s-1.505,7.498-4.238,10.23c-2.733,2.733-6.366,4.238-10.231,4.238ZM72.081,118.544c-3.052,0-6.104,1.161-8.428,3.485-2.251,2.251-3.491,5.244-3.491,8.428s1.24,6.177,3.491,8.428c2.251,2.251,5.244,3.491,8.428,3.491s6.177-1.24,8.428-3.491h0c2.251-2.251,3.491-5.244,3.491-8.428s-1.24-6.177-3.491-8.428c-2.323-2.323-5.376-3.485-8.428-3.485Z" style="fill: #72ccdb;"/>
  <circle cx="100.023" cy="150.877" r="5.585" style="fill: #72ccdb;"/>
  <path d="M100.023,180.034c-7.978,0-14.468-6.49-14.468-14.468s6.49-14.468,14.468-14.468,14.468,6.49,14.468,14.468-6.49,14.468-14.468,14.468ZM100.023,153.647c-6.572,0-11.919,5.347-11.919,11.919s5.347,11.919,11.919,11.919,11.919-5.347,11.919-11.919-5.347-11.919-11.919-11.919Z" style="fill: #72ccdb;"/>
</svg>