<?xml version="1.0" encoding="UTF-8"?>
<svg id="Layer_1" data-name="Layer 1" xmlns="http://www.w3.org/2000/svg" width="200" height="200" viewBox="0 0 200 200">
  <path d="M100.122,127.116c-17.997,0-32.639-14.642-32.639-32.639s14.642-32.639,32.639-32.639,32.639,14.642,32.639,32.639-14.642,32.639-32.639,32.639ZM100.122,64.704c-16.417,0-29.773,13.356-29.773,29.773s13.356,29.773,29.773,29.773,29.773-13.356,29.773-29.773-13.356-29.773-29.773-29.773Z" style="fill: #72ccdb;"/>
  <path d="M124.005,90.564c-2.532,0-5.046-.598-7.367-1.781-3.871-1.973-6.743-5.334-8.085-9.466-1.343-4.132-.996-8.54.977-12.411,1.972-3.871,5.334-6.742,9.467-8.085,4.132-1.342,8.54-.995,12.411.977,3.871,1.973,6.743,5.334,8.085,9.466,1.343,4.132.996,8.54-.977,12.411-1.972,3.871-5.334,6.742-9.467,8.085-1.654.537-3.353.804-5.043.804ZM124.036,60.885c-1.393,0-2.792.22-4.155.663-3.404,1.106-6.173,3.471-7.798,6.66-1.625,3.189-1.911,6.82-.805,10.224s3.471,6.174,6.661,7.799c3.189,1.625,6.82,1.911,10.224.804,3.404-1.106,6.173-3.471,7.798-6.66,1.625-3.189,1.911-6.82.805-10.224s-3.471-6.174-6.661-7.799c-1.912-.974-3.983-1.467-6.069-1.467Z" style="fill: #72ccdb;"/>
  <path d="M75.961,90.564c-2.532,0-5.046-.598-7.367-1.781-3.871-1.973-6.743-5.334-8.085-9.466-1.343-4.132-.996-8.54.977-12.411,1.972-3.871,5.334-6.742,9.467-8.085,4.132-1.342,8.54-.995,12.411.977,3.871,1.973,6.743,5.334,8.085,9.466,1.343,4.132.996,8.54-.977,12.411-1.972,3.871-5.334,6.742-9.467,8.085-1.654.537-3.353.804-5.043.804ZM75.992,60.885c-1.393,0-2.792.22-4.155.663-3.404,1.106-6.173,3.471-7.798,6.66-1.625,3.189-1.911,6.82-.805,10.224s3.471,6.174,6.661,7.799,6.82,1.911,10.224.804c3.404-1.106,6.173-3.471,7.798-6.66,1.625-3.189,1.911-6.82.805-10.224s-3.471-6.174-6.661-7.799c-1.912-.974-3.983-1.467-6.069-1.467Z" style="fill: #72ccdb;"/>
  <path d="M100.132,141.983c-2.532,0-5.046-.598-7.367-1.781-3.871-1.973-6.743-5.334-8.085-9.466-1.343-4.132-.996-8.54.977-12.411,1.972-3.871,5.334-6.742,9.467-8.085,8.529-2.771,17.724,1.914,20.496,10.443,1.343,4.132.996,8.54-.977,12.411-1.972,3.871-5.334,6.742-9.467,8.085-1.654.537-3.353.804-5.043.804ZM100.14,112.309c-1.369,0-2.76.212-4.131.657-3.404,1.106-6.173,3.471-7.798,6.66-1.625,3.189-1.911,6.82-.805,10.224s3.471,6.174,6.661,7.799c3.189,1.625,6.82,1.911,10.224.804,3.404-1.106,6.173-3.471,7.798-6.66,1.625-3.189,1.911-6.82.805-10.224-1.838-5.656-7.104-9.26-12.753-9.26Z" style="fill: #72ccdb;"/>
  <circle cx="100.149" cy="125.709" r="10.234" style="fill: #72ccdb;"/>
</svg>